<svg xmlns="http://www.w3.org/2000/svg" viewBox="0 0 220 44" width="220" height="44">
  <!-- Corazón -->
  <path d="M18 10 C18 6.7 15.3 4 12 4 C8.7 4 6 6.7 6 10 C6 12.5 7.2 14.5 18 22 C28.8 14.5 30 12.5 30 10 C30 6.7 27.3 4 24 4 C20.7 4 18 6.7 18 10Z" fill="#f43f5e"/>

  <!-- "100" usando rectángulos y curvas -->
  <!-- "1" -->
  <rect x="38" y="8" width="4" height="20" rx="2" fill="#0f172a"/>
  <!-- "0" primero -->
  <rect x="48" y="8" width="12" height="20" rx="6" fill="#0f172a"/>
  <rect x="51" y="11" width="6" height="14" rx="3" fill="white"/>
  <!-- "0" segundo -->
  <rect x="66" y="8" width="12" height="20" rx="6" fill="#0f172a"/>
  <rect x="69" y="11" width="6" height="14" rx="3" fill="white"/>

  <!-- Separador -->
  <rect x="84" y="12" width="2" height="12" rx="1" fill="#e2e8f0"/>

  <!-- "Citas" — letras construidas con paths simples -->
  <!-- C -->
  <path d="M94 14 Q94 8 101 8 L104 8 L104 11 L101 11 Q97 11 97 18 Q97 25 101 25 L104 25 L104 28 L101 28 Q94 28 94 22Z" fill="#0f172a"/>
  <!-- i -->
  <rect x="108" y="8" width="3" height="3" rx="1.5" fill="#f43f5e"/>
  <rect x="108" y="13" width="3" height="15" rx="1.5" fill="#0f172a"/>
  <!-- t -->
  <rect x="116" y="8" width="3" height="20" rx="1.5" fill="#0f172a"/>
  <rect x="113" y="13" width="9" height="3" rx="1.5" fill="#0f172a"/>
  <!-- a -->
  <path d="M127 13 Q133 13 133 18 L133 28 L130 28 L130 26 Q128 29 125 28 Q122 27 122 23 Q122 19 126 18 L130 18 L130 17 Q130 15 127 15Z" fill="#0f172a"/>
  <!-- s -->
  <path d="M138 13 Q144 13 144 17 Q144 20 139 21 Q136 22 136 24 Q136 26 139 26 L144 26 L144 28 L138 28 Q133 28 133 24 Q133 21 138 20 Q141 19 141 17 Q141 15 138 15Z" fill="#0f172a"/>

  <!-- "BOLIVIA" pequeño abajo -->
  <rect x="38" y="33" width="5" height="2" rx="1" fill="#f43f5e"/>
  <rect x="45" y="33" width="5" height="2" rx="1" fill="#f43f5e"/>
  <rect x="52" y="33" width="5" height="2" rx="1" fill="#f43f5e"/>
  <rect x="59" y="33" width="5" height="2" rx="1" fill="#f43f5e"/>
  <rect x="66" y="33" width="5" height="2" rx="1" fill="#f43f5e"/>
  <rect x="73" y="33" width="5" height="2" rx="1" fill="#f43f5e"/>
  <rect x="80" y="33" width="5" height="2" rx="1" fill="#f43f5e"/>
</svg>
